<?xml version="1.0" encoding="UTF-8" standalone="no"?>
<svg width="60px" height="60px" viewBox="0 0 60 60" version="1.1" xmlns="http://www.w3.org/2000/svg" xmlns:xlink="http://www.w3.org/1999/xlink" xmlns:sketch="http://www.bohemiancoding.com/sketch/ns">
    <!-- Generator: Sketch 3.4.1 (15681) - http://www.bohemiancoding.com/sketch -->
    <title>Artboard 1</title>
    <desc>Created with Sketch.</desc>
    <defs></defs>
    <g id="Page-1" stroke="none" stroke-width="1" fill="none" fill-rule="evenodd" sketch:type="MSPage">
        <g id="Artboard-1" sketch:type="MSArtboardGroup">
            <text id="Rainify" sketch:type="MSTextLayer" font-family="Century Gothic" font-size="19" font-weight="normal" fill="#70ADDC">
                <tspan x="0" y="56">Rainify</tspan>
            </text>
            <circle id="Oval-1" fill="#FFFFFF" sketch:type="MSShapeGroup" cx="8" cy="9" r="4"></circle>
            <circle id="Oval-1" fill="#FFFFFF" sketch:type="MSShapeGroup" cx="12" cy="11" r="4"></circle>
            <circle id="Oval-1" fill="#FFFFFF" sketch:type="MSShapeGroup" cx="14" cy="9" r="4"></circle>
            <circle id="Oval-1" fill="#FFFFFF" sketch:type="MSShapeGroup" cx="20" cy="11" r="4"></circle>
            <circle id="Oval-1" fill="#FFFFFF" sketch:type="MSShapeGroup" cx="16" cy="7" r="4"></circle>
            <circle id="Oval-1" fill="#FFFFFF" sketch:type="MSShapeGroup" cx="22" cy="7" r="4"></circle>
            <circle id="Oval-1" fill="#FFFFFF" sketch:type="MSShapeGroup" cx="12" cy="7" r="4"></circle>
            <circle id="Oval-1" fill="#FFFFFF" sketch:type="MSShapeGroup" cx="16" cy="13" r="4"></circle>
            <circle id="Oval-1" fill="#FFFFFF" sketch:type="MSShapeGroup" cx="38" cy="19" r="4"></circle>
            <circle id="Oval-1" fill="#FFFFFF" sketch:type="MSShapeGroup" cx="38" cy="13" r="4"></circle>
            <circle id="Oval-1" fill="#FFFFFF" sketch:type="MSShapeGroup" cx="42" cy="17" r="4"></circle>
            <circle id="Oval-1" fill="#FFFFFF" sketch:type="MSShapeGroup" cx="44" cy="13" r="4"></circle>
            <circle id="Oval-1" fill="#FFFFFF" sketch:type="MSShapeGroup" cx="46" cy="21" r="4"></circle>
            <circle id="Oval-1" fill="#FFFFFF" sketch:type="MSShapeGroup" cx="42" cy="21" r="4"></circle>
            <circle id="Oval-1" fill="#FFFFFF" sketch:type="MSShapeGroup" cx="48" cy="17" r="4"></circle>
            <path d="M15.5,23 C15.7761424,23 16,22.7761424 16,22.5 C16,22.2238576 15.7761424,22 15.5,22 C15.2238576,22 15,22.2238576 15,22.5 C15,22.7761424 15.2238576,23 15.5,23 Z" id="Oval-16" fill="#84C0CB" sketch:type="MSShapeGroup"></path>
            <path d="M42.5,31 C42.7761424,31 43,30.7761424 43,30.5 C43,30.2238576 42.7761424,30 42.5,30 C42.2238576,30 42,30.2238576 42,30.5 C42,30.7761424 42.2238576,31 42.5,31 Z" id="Oval-16" fill="#84C0CB" sketch:type="MSShapeGroup"></path>
            <path d="M45.5,35 C45.7761424,35 46,34.7761424 46,34.5 C46,34.2238576 45.7761424,34 45.5,34 C45.2238576,34 45,34.2238576 45,34.5 C45,34.7761424 45.2238576,35 45.5,35 Z" id="Oval-16" fill="#84C0CB" sketch:type="MSShapeGroup"></path>
            <path d="M34.5,28 C34.7761424,28 35,27.7761424 35,27.5 C35,27.2238576 34.7761424,27 34.5,27 C34.2238576,27 34,27.2238576 34,27.5 C34,27.7761424 34.2238576,28 34.5,28 Z" id="Oval-16" fill="#84C0CB" sketch:type="MSShapeGroup"></path>
            <path d="M6.5,25 C6.77614237,25 7,24.7761424 7,24.5 C7,24.2238576 6.77614237,24 6.5,24 C6.22385763,24 6,24.2238576 6,24.5 C6,24.7761424 6.22385763,25 6.5,25 Z" id="Oval-16" fill="#84C0CB" sketch:type="MSShapeGroup"></path>
            <path d="M19.5,28 C19.7761424,28 20,27.7761424 20,27.5 C20,27.2238576 19.7761424,27 19.5,27 C19.2238576,27 19,27.2238576 19,27.5 C19,27.7761424 19.2238576,28 19.5,28 Z" id="Oval-16" fill="#84C0CB" sketch:type="MSShapeGroup"></path>
            <path d="M10.5,35 C10.7761424,35 11,34.7761424 11,34.5 C11,34.2238576 10.7761424,34 10.5,34 C10.2238576,34 10,34.2238576 10,34.5 C10,34.7761424 10.2238576,35 10.5,35 Z" id="Oval-16" fill="#84C0CB" sketch:type="MSShapeGroup"></path>
            <path d="M25.5,35 C25.7761424,35 26,34.7761424 26,34.5 C26,34.2238576 25.7761424,34 25.5,34 C25.2238576,34 25,34.2238576 25,34.5 C25,34.7761424 25.2238576,35 25.5,35 Z" id="Oval-16" fill="#84C0CB" sketch:type="MSShapeGroup"></path>
            <path d="M34.5,37 C34.7761424,37 35,36.7761424 35,36.5 C35,36.2238576 34.7761424,36 34.5,36 C34.2238576,36 34,36.2238576 34,36.5 C34,36.7761424 34.2238576,37 34.5,37 Z" id="Oval-16" fill="#84C0CB" sketch:type="MSShapeGroup"></path>
            <path d="M26.5,25 C26.7761424,25 27,24.7761424 27,24.5 C27,24.2238576 26.7761424,24 26.5,24 C26.2238576,24 26,24.2238576 26,24.5 C26,24.7761424 26.2238576,25 26.5,25 Z" id="Oval-16" fill="#84C0CB" sketch:type="MSShapeGroup"></path>
            <path d="M54.5,39 C54.7761424,39 55,38.7761424 55,38.5 C55,38.2238576 54.7761424,38 54.5,38 C54.2238576,38 54,38.2238576 54,38.5 C54,38.7761424 54.2238576,39 54.5,39 Z" id="Oval-16" fill="#84C0CB" sketch:type="MSShapeGroup"></path>
            <path d="M51.5,33 C51.7761424,33 52,32.7761424 52,32.5 C52,32.2238576 51.7761424,32 51.5,32 C51.2238576,32 51,32.2238576 51,32.5 C51,32.7761424 51.2238576,33 51.5,33 Z" id="Oval-16" fill="#84C0CB" sketch:type="MSShapeGroup"></path>
            <path d="M18.5,40 C18.7761424,40 19,39.7761424 19,39.5 C19,39.2238576 18.7761424,39 18.5,39 C18.2238576,39 18,39.2238576 18,39.5 C18,39.7761424 18.2238576,40 18.5,40 Z" id="Oval-16" fill="#84C0CB" sketch:type="MSShapeGroup"></path>
        </g>
    </g>
</svg>